[img]http://img855.imageshack.us/img855/4712/cowboysandaliens2011320.jpg[/img]
 
http://www.imdb.com/title/tt0409847/

Source: cowboys.and.aliens.2011.extended.720p.bluray.x264-crossbow

Subs: English

Sample and Screens included.

General
Complete name                    : Cowboys and Aliens 2011-720p MP4 AAC Extended BRRip-CC.mp4
Format                           : MPEG-4
Format profile                   : Base Media
Codec ID                         : isom
File size                        : 1.86 GiB
Duration                         : 2h 15mn
Overall bit rate                 : 1 974 Kbps
Encoded date                     : UTC 2011-11-21 06:29:58
Tagged date                      : UTC 2011-11-21 06:29:58
Writing application              : Yamb 2.1.0.0 

Video
ID                               : 1
Format                           : AVC
Format/Info                      : Advanced Video Codec
Format profile                   : Main@L3.1
Format settings, CABAC           : Yes
Format settings, ReFrames        : 5 frames
Codec ID                         : avc1
Codec ID/Info                    : Advanced Video Coding
Duration                         : 2h 15mn
Bit rate mode                    : Variable
Bit rate                         : 1 587 Kbps
Nominal bit rate                 : 1 597 Kbps
Maximum bit rate                 : 11.7 Mbps
Width                            : 1 280 pixels
Height                           : 528 pixels
Display aspect ratio             : 2.40:1
Frame rate mode                  : Variable
Frame rate                       : 23.976 fps
Minimum frame rate               : 23.810 fps
Maximum frame rate               : 24.390 fps
Resolution                       : 8 bits
Colorimetry                      : 4:2:0
Scan type                        : Progressive
Bits/(Pixel*Frame)               : 0.098
Stream size                      : 1.50 GiB (80%)
Writing library                  : x264 core 65
Encoding settings                : cabac=1 / ref=5 / deblock=1:0:0 / analyse=0x1:0x111 / me=hex / subme=6 / psy_rd=1.0:0.0 / mixed_ref=0 / me_range=16 / chroma_me=1 / trellis=0 / 8x8dct=0 / cqm=0 / deadzone=21,11 / chroma_qp_offset=-2 / threads=3 / nr=0 / decimate=1 / mbaff=0 / bframes=5 / b_pyramid=0 / b_adapt=1 / b_bias=0 / direct=1 / wpredb=0 / keyint=240 / keyint_min=24 / scenecut=40(pre) / rc=abr / bitrate=1597 / ratetol=1.0 / qcomp=0.60 / qpmin=10 / qpmax=51 / qpstep=4 / ip_ratio=1.40 / pb_ratio=1.30 / aq=1:1.00
Encoded date                     : UTC 2011-11-21 21:53:46
Tagged date                      : UTC 2011-11-21 06:32:51
Color primaries                  : BT.709-5, BT.1361, IEC 61966-2-4, SMPTE RP177
Transfer characteristics         : BT.709-5, BT.1361
Matrix coefficients              : BT.709-5, BT.1361, IEC 61966-2-4 709, SMPTE RP177

Audio
ID                               : 2
Format                           : AAC
Format/Info                      : Advanced Audio Codec
Format version                   : Version 4
Format profile                   : LC
Format settings, SBR             : No
Codec ID                         : 40
Duration                         : 2h 15mn
Bit rate mode                    : Variable
Bit rate                         : 384 Kbps
Maximum bit rate                 : 615 Kbps
Channel(s)                       : 6 channels
Channel positions                : Front: L C R, Rear: L R, LFE
Sampling rate                    : 48.0 KHz
Stream size                      : 370 MiB (19%)
Language                         : English
Encoded date                     : UTC 2011-11-21 06:32:02
Tagged date                      : UTC 2011-11-21 06:32:51

[img]http://img151.imageshack.us/img151/4521/cowboysandaliens2011720.jpg[/img]